<?xml version="1.0" encoding="utf-8"?>
<!-- Generator: Adobe Illustrator 22.1.0, SVG Export Plug-In . SVG Version: 6.00 Build 0)  -->
<svg version="1.1" id="Layer_1" xmlns="http://www.w3.org/2000/svg" xmlns:xlink="http://www.w3.org/1999/xlink" x="0px" y="0px"
	 viewBox="0 0 217.3 72" style="enable-background:new 0 0 217.3 72;" xml:space="preserve">
<style type="text/css">
	.st0{enable-background:new    ;}
	.st1{fill:#FFECD1;}
	.st2{opacity:0.94;enable-background:new    ;}
</style>
<title>secrets</title>
<g class="st0">
	<path class="st1" d="M56.2,23.2v37.7h-52V23.2h5.1v33.2h18.5V23.2h5.1v33.2h18.3V23.2H56.2z M62,56.4v12.7h-4.8v-8.2h-6.4v-4.4H62z
		"/>
	<path class="st1" d="M95.1,26.6c2.6,2.5,3.9,6.1,3.9,10.9v23.4h-4.9V55c-1.1,2-2.8,3.5-5,4.6s-4.9,1.6-7.9,1.6c-4.2,0-7.5-1-10-3
		c-2.5-2-3.7-4.7-3.7-8c0-3.2,1.2-5.8,3.5-7.7c2.3-2,6-2.9,11.1-2.9h12v-2.3c0-3.2-0.9-5.7-2.7-7.4c-1.8-1.7-4.5-2.5-8-2.5
		c-2.4,0-4.7,0.4-6.9,1.2c-2.2,0.8-4.1,1.9-5.7,3.3L68.4,28c1.9-1.6,4.2-2.9,6.9-3.8c2.7-0.9,5.5-1.3,8.5-1.3
		C88.7,22.9,92.4,24.2,95.1,26.6z M89.3,55.3c2.1-1.3,3.6-3.2,4.6-5.7v-6.2H82.1c-6.4,0-9.7,2.2-9.7,6.7c0,2.2,0.8,3.9,2.5,5.2
		c1.7,1.3,4,1.9,7,1.9C84.8,57.2,87.3,56.6,89.3,55.3z"/>
</g>
<g class="st0">
	<path class="st1" d="M118.3,58.8c-2.9-1.6-5.2-3.9-6.9-6.8c-1.7-2.9-2.5-6.2-2.5-9.9c0-3.7,0.8-7,2.5-9.9c1.7-2.9,4-5.2,6.9-6.8
		c2.9-1.6,6.3-2.4,10-2.4c3.2,0,6.1,0.6,8.7,1.9c2.6,1.3,4.6,3.1,6.1,5.6l-3.8,2.6c-1.2-1.9-2.8-3.3-4.7-4.2c-1.9-0.9-4-1.4-6.2-1.4
		c-2.7,0-5.2,0.6-7.3,1.8c-2.2,1.2-3.9,2.9-5.1,5.2c-1.2,2.2-1.8,4.8-1.8,7.7c0,2.9,0.6,5.5,1.8,7.7s2.9,3.9,5.1,5.2
		c2.2,1.2,4.6,1.8,7.3,1.8c2.2,0,4.3-0.5,6.2-1.4c1.9-0.9,3.5-2.3,4.7-4.2l3.8,2.6c-1.5,2.4-3.5,4.3-6.1,5.6
		c-2.6,1.3-5.5,1.9-8.7,1.9C124.6,61.2,121.2,60.4,118.3,58.8z"/>
</g>
<g class="st0">
	<path class="st1" d="M178.6,27.7h-14.3v33.2h-5.1V27.7h-14.3v-4.5h33.6V27.7z"/>
</g>
<g class="st0">
	<path class="st1" d="M214.2,23.2v37.7h-4.7V48.4h-11.8h-1.4l-8.7,12.5H182l9.4-13.2c-2.9-0.8-5.2-2.2-6.7-4.2
		c-1.6-2-2.4-4.4-2.4-7.5c0-4.2,1.4-7.4,4.3-9.6c2.9-2.2,6.8-3.3,11.7-3.3H214.2z M198.1,44.6h11.4V27.7h-11c-7.4,0-11,2.8-11,8.5
		C187.5,41.8,191,44.6,198.1,44.6z"/>
</g>
<g class="st0">
	<path class="st1" d="M6,15.6c-0.9-0.5-1.6-1.2-2.1-2.1c-0.5-0.9-0.8-1.9-0.8-3c0-1.1,0.3-2.1,0.8-3C4.3,6.5,5.1,5.8,6,5.3
		C6.9,4.8,7.9,4.6,9,4.6c1,0,1.9,0.2,2.7,0.6s1.4,1,1.9,1.7l-1.2,0.8c-0.4-0.6-0.9-1-1.5-1.3C10.3,6.1,9.7,5.9,9,5.9
		c-0.8,0-1.6,0.2-2.3,0.6C6.1,6.9,5.6,7.4,5.2,8.1s-0.6,1.5-0.6,2.4c0,0.9,0.2,1.7,0.6,2.4s0.9,1.2,1.6,1.6C7.4,14.8,8.2,15,9,15
		c0.7,0,1.3-0.1,1.9-0.4c0.6-0.3,1.1-0.7,1.5-1.3l1.2,0.8c-0.5,0.7-1.1,1.3-1.9,1.7S10,16.3,9,16.3C7.9,16.3,6.9,16.1,6,15.6z"/>
</g>
<g class="st0">
	<path class="st1" d="M26.3,10.9h-9.7c0.1,1.2,0.5,2.2,1.4,2.9s1.9,1.1,3.2,1.1c0.7,0,1.4-0.1,2-0.4c0.6-0.3,1.1-0.6,1.6-1.1l0.9,1
		c-0.5,0.6-1.2,1.1-1.9,1.4c-0.8,0.3-1.6,0.5-2.5,0.5c-1.2,0-2.2-0.3-3.2-0.8c-0.9-0.5-1.6-1.2-2.1-2.1c-0.5-0.9-0.8-1.9-0.8-3
		c0-1.1,0.2-2.1,0.7-3c0.5-0.9,1.2-1.6,2-2.1c0.9-0.5,1.8-0.7,2.9-0.7c1.1,0,2,0.3,2.9,0.7c0.9,0.5,1.5,1.2,2,2.1
		c0.5,0.9,0.7,1.9,0.7,3L26.3,10.9z M17.9,7c-0.8,0.7-1.2,1.6-1.3,2.8h8.2c-0.1-1.1-0.5-2.1-1.3-2.8c-0.8-0.7-1.7-1.1-2.8-1.1
		C19.6,5.9,18.7,6.3,17.9,7z"/>
</g>
<g class="st0">
	<path class="st1" d="M34.4,11.1h-2.6v5.1h-1.6V4.7h1.6v5.1h2.7l4.1-5.1h1.7l-4.6,5.6l4.9,6h-1.8L34.4,11.1z"/>
</g>
<g class="st0">
	<path class="st1" d="M52.1,5.3c0.9,0.5,1.6,1.2,2.1,2.1c0.5,0.9,0.7,1.9,0.7,3.1c0,1.2-0.3,2.2-0.7,3.1c-0.5,0.9-1.2,1.6-2.1,2.1
		c-0.9,0.5-1.9,0.7-3,0.7c-0.9,0-1.8-0.2-2.5-0.6c-0.8-0.4-1.4-1-1.9-1.7v6.4h-1.6V4.7h1.5V7c0.5-0.8,1.1-1.3,1.9-1.8
		c0.8-0.4,1.6-0.6,2.6-0.6C50.2,4.6,51.2,4.8,52.1,5.3z M51.2,14.4c0.7-0.4,1.2-0.9,1.6-1.6s0.6-1.5,0.6-2.4s-0.2-1.7-0.6-2.3
		s-0.9-1.2-1.6-1.6c-0.7-0.4-1.4-0.6-2.2-0.6c-0.8,0-1.6,0.2-2.2,0.6c-0.7,0.4-1.2,0.9-1.5,1.6c-0.4,0.7-0.6,1.5-0.6,2.3
		s0.2,1.7,0.6,2.4c0.4,0.7,0.9,1.2,1.5,1.6c0.7,0.4,1.4,0.6,2.2,0.6C49.8,15,50.6,14.8,51.2,14.4z"/>
</g>
<g class="st0">
	<path class="st1" d="M68.3,10.9h-9.7c0.1,1.2,0.5,2.2,1.4,2.9s1.9,1.1,3.2,1.1c0.7,0,1.4-0.1,2-0.4c0.6-0.3,1.1-0.6,1.6-1.1l0.9,1
		c-0.5,0.6-1.2,1.1-1.9,1.4c-0.8,0.3-1.6,0.5-2.5,0.5c-1.2,0-2.2-0.3-3.2-0.8c-0.9-0.5-1.6-1.2-2.1-2.1c-0.5-0.9-0.8-1.9-0.8-3
		c0-1.1,0.2-2.1,0.7-3c0.5-0.9,1.2-1.6,2-2.1c0.9-0.5,1.8-0.7,2.9-0.7c1.1,0,2,0.3,2.9,0.7c0.9,0.5,1.5,1.2,2,2.1
		c0.5,0.9,0.7,1.9,0.7,3L68.3,10.9z M59.9,7c-0.8,0.7-1.2,1.6-1.3,2.8h8.2c-0.1-1.1-0.5-2.1-1.3-2.8c-0.8-0.7-1.7-1.1-2.8-1.1
		C61.6,5.9,60.7,6.3,59.9,7z"/>
</g>
<g class="st0">
	<path class="st1" d="M79.3,6h-4.4v10.2h-1.6V6H69V4.7h10.3V6z"/>
</g>
<g class="st0">
	<path class="st1" d="M81.2,4.7h1.6v9.2l7.7-9.2h1.4v11.6h-1.6V7l-7.7,9.2h-1.4V4.7z"/>
</g>
<g class="st2">
	<path class="st1" d="M113.5,14.9V19H112v-2.8h-10.4V19h-1.5v-4.2h0.7c0.8,0,1.3-0.6,1.6-1.7c0.3-1.1,0.5-2.6,0.6-4.6l0.2-3.9h8.5
		v10.2H113.5z M104,12.7c-0.2,1.1-0.6,1.8-1.1,2.2h7.2V6h-5.6l-0.1,2.6C104.3,10.3,104.2,11.6,104,12.7z"/>
</g>
<g class="st2">
	<path class="st1" d="M123.6,5.7c0.8,0.8,1.2,1.9,1.2,3.4v7.2h-1.5v-1.8c-0.4,0.6-0.9,1.1-1.6,1.4c-0.7,0.3-1.5,0.5-2.4,0.5
		c-1.3,0-2.3-0.3-3.1-0.9c-0.8-0.6-1.1-1.4-1.1-2.4c0-1,0.4-1.8,1.1-2.4c0.7-0.6,1.8-0.9,3.4-0.9h3.7V9c0-1-0.3-1.8-0.8-2.3
		c-0.6-0.5-1.4-0.8-2.4-0.8c-0.7,0-1.4,0.1-2.1,0.4c-0.7,0.2-1.3,0.6-1.7,1l-0.7-1.2c0.6-0.5,1.3-0.9,2.1-1.2s1.7-0.4,2.6-0.4
		C121.7,4.6,122.8,5,123.6,5.7z M121.9,14.5c0.6-0.4,1.1-1,1.4-1.7v-1.9h-3.6c-2,0-3,0.7-3,2.1c0,0.7,0.3,1.2,0.8,1.6
		c0.5,0.4,1.2,0.6,2.2,0.6C120.5,15.1,121.2,14.9,121.9,14.5z"/>
</g>
<g class="st2">
	<path class="st1" d="M129.2,4.7h1.6v5.1h7.3V4.7h1.6v11.6H138v-5.1h-7.3v5.1h-1.6V4.7z"/>
</g>
<g class="st2">
	<path class="st1" d="M146,15.6c-0.9-0.5-1.6-1.2-2.1-2.1c-0.5-0.9-0.8-1.9-0.8-3c0-1.1,0.3-2.1,0.8-3c0.5-0.9,1.2-1.6,2.1-2.1
		c0.9-0.5,1.9-0.7,3.1-0.7c1,0,1.9,0.2,2.7,0.6c0.8,0.4,1.4,1,1.9,1.7l-1.2,0.8c-0.4-0.6-0.9-1-1.5-1.3s-1.2-0.4-1.9-0.4
		c-0.8,0-1.6,0.2-2.3,0.6s-1.2,0.9-1.6,1.6s-0.6,1.5-0.6,2.4c0,0.9,0.2,1.7,0.6,2.4s0.9,1.2,1.6,1.6s1.4,0.6,2.3,0.6
		c0.7,0,1.3-0.1,1.9-0.4c0.6-0.3,1.1-0.7,1.5-1.3l1.2,0.8c-0.5,0.7-1.1,1.3-1.9,1.7s-1.7,0.6-2.7,0.6
		C147.9,16.3,146.9,16.1,146,15.6z"/>
	<path class="st1" d="M164.9,9.7c0.8,0.6,1.1,1.5,1.1,2.7c0,1.2-0.4,2.2-1.2,2.8c-0.8,0.7-2,1-3.5,1l-4.7,0V4.7h1.6v4l3.4,0
		C163,8.8,164.1,9.1,164.9,9.7z M163.6,14.4c0.5-0.4,0.8-1.1,0.8-2c0-0.9-0.3-1.5-0.8-1.9c-0.5-0.4-1.4-0.6-2.4-0.6l-3,0V15l3,0
		C162.2,15.1,163,14.9,163.6,14.4z"/>
</g>
<g class="st2">
	<path class="st1" d="M172.4,11.1h-2.6v5.1h-1.6V4.7h1.6v5.1h2.7l4.1-5.1h1.7l-4.6,5.6l4.9,6h-1.8L172.4,11.1z"/>
</g>
<g class="st2">
	<path class="st1" d="M181.9,15.6c-0.9-0.5-1.6-1.2-2.1-2.1c-0.5-0.9-0.8-1.9-0.8-3c0-1.1,0.3-2.1,0.8-3c0.5-0.9,1.2-1.6,2.1-2.1
		c0.9-0.5,1.9-0.7,3-0.7c1.1,0,2.1,0.3,3,0.7c0.9,0.5,1.6,1.2,2.1,2.1c0.5,0.9,0.8,1.9,0.8,3c0,1.1-0.3,2.1-0.8,3
		c-0.5,0.9-1.2,1.6-2.1,2.1c-0.9,0.5-1.9,0.8-3,0.8C183.8,16.3,182.8,16.1,181.9,15.6z M187.2,14.4c0.7-0.4,1.2-0.9,1.5-1.6
		c0.4-0.7,0.6-1.5,0.6-2.4s-0.2-1.7-0.6-2.4c-0.4-0.7-0.9-1.2-1.5-1.6c-0.7-0.4-1.4-0.6-2.2-0.6c-0.8,0-1.6,0.2-2.2,0.6
		c-0.7,0.4-1.2,0.9-1.5,1.6s-0.6,1.5-0.6,2.4s0.2,1.7,0.6,2.4s0.9,1.2,1.5,1.6c0.7,0.4,1.4,0.6,2.2,0.6
		C185.8,15,186.5,14.8,187.2,14.4z"/>
</g>
<g class="st2">
	<path class="st1" d="M202.4,6h-6.6v10.2h-1.6V4.7h8.2V6z"/>
</g>
<g class="st2">
	<path class="st1" d="M205.9,15.6c-0.9-0.5-1.6-1.2-2.1-2.1c-0.5-0.9-0.8-1.9-0.8-3c0-1.1,0.3-2.1,0.8-3c0.5-0.9,1.2-1.6,2.1-2.1
		c0.9-0.5,1.9-0.7,3-0.7c1.1,0,2.1,0.3,3,0.7c0.9,0.5,1.6,1.2,2.1,2.1c0.5,0.9,0.8,1.9,0.8,3c0,1.1-0.3,2.1-0.8,3
		c-0.5,0.9-1.2,1.6-2.1,2.1c-0.9,0.5-1.9,0.8-3,0.8C207.8,16.3,206.8,16.1,205.9,15.6z M211.2,14.4c0.7-0.4,1.2-0.9,1.5-1.6
		c0.4-0.7,0.6-1.5,0.6-2.4s-0.2-1.7-0.6-2.4c-0.4-0.7-0.9-1.2-1.5-1.6c-0.7-0.4-1.4-0.6-2.2-0.6c-0.8,0-1.6,0.2-2.2,0.6
		c-0.7,0.4-1.2,0.9-1.5,1.6s-0.6,1.5-0.6,2.4s0.2,1.7,0.6,2.4s0.9,1.2,1.5,1.6c0.7,0.4,1.4,0.6,2.2,0.6
		C209.8,15,210.5,14.8,211.2,14.4z"/>
</g>
</svg>
